<?xml version="1.0" encoding="UTF-8"?>
<!DOCTYPE svg PUBLIC "-//W3C//DTD SVG 1.1//EN" "http://www.w3.org/Graphics/SVG/1.1/DTD/svg11.dtd">
<!-- Creator: CorelDRAW -->
<svg xmlns="http://www.w3.org/2000/svg" xml:space="preserve" width="1.16758in" height="1.70567in" version="1.1" style="shape-rendering:geometricPrecision; text-rendering:geometricPrecision; image-rendering:optimizeQuality; fill-rule:evenodd; clip-rule:evenodd"
viewBox="0 0 112.58 164.47"
 xmlns:xlink="http://www.w3.org/1999/xlink"
 xmlns:xodm="http://www.corel.com/coreldraw/odm/2003">
 <defs>
  <style type="text/css">
   <![CDATA[
    .fil0 {fill:#A1B986}
    .fil1 {fill:#5E8C52}
   ]]>
  </style>
 </defs>
 <g id="Layer_x0020_1">
  <metadata id="CorelCorpID_0Corel-Layer"/>
  <g id="_2559960792480">
   <path class="fil0" d="M66.88 97.59c0,25.24 20.46,45.7 45.7,45.7l0 21.18c-36.94,0 -66.88,-29.94 -66.88,-66.88l21.18 0z"/>
   <path class="fil0" d="M45.7 48.74c0,25.24 -20.46,45.7 -45.7,45.7l0 21.18c23.63,0 44.39,-12.25 56.29,-30.75 11.9,18.5 32.66,30.75 56.29,30.75l0 -21.18c-25.24,0 -45.7,-20.46 -45.7,-45.7l-21.18 0z"/>
   <path class="fil1" d="M66.88 0c0,25.24 20.46,45.7 45.7,45.7l0 21.18c-23.63,0 -44.39,-12.25 -56.29,-30.75 -11.9,18.5 -32.66,30.75 -56.29,30.75l0 -21.18c25.24,0 45.7,-20.46 45.7,-45.7l21.18 0z"/>
  </g>
 </g>
</svg>
